<mxfile host="app.diagrams.net" modified="2020-11-07T12:23:28.919Z" agent="5.0 (Windows NT 10.0; Win64; x64) AppleWebKit/537.36 (KHTML, like Gecko) Chrome/86.0.4240.183 Safari/537.36" etag="IkAhl5t8vEL5I-gflC7s" version="13.9.2" type="github">
  <diagram id="aHKqiVCygHe_t1bRwtkh" name="Page-1">
    <mxGraphModel dx="2889" dy="1154" grid="1" gridSize="10" guides="1" tooltips="1" connect="1" arrows="1" fold="1" page="1" pageScale="1" pageWidth="827" pageHeight="1169" math="0" shadow="0">
      <root>
        <mxCell id="0" />
        <mxCell id="1" parent="0" />
        <mxCell id="8054SFOE1MTh788rlJeO-1" value="" style="ellipse;fillColor=#000000;strokeColor=none;" vertex="1" parent="1">
          <mxGeometry x="-220" y="250" width="30" height="30" as="geometry" />
        </mxCell>
        <mxCell id="8054SFOE1MTh788rlJeO-2" value="메뉴 선택(구성) 중" style="html=1;align=center;verticalAlign=top;rounded=1;absoluteArcSize=1;arcSize=10;dashed=0;" vertex="1" parent="1">
          <mxGeometry x="150" y="245" width="140" height="40" as="geometry" />
        </mxCell>
        <mxCell id="8054SFOE1MTh788rlJeO-3" value="" style="endArrow=classic;html=1;exitX=1;exitY=0.5;exitDx=0;exitDy=0;entryX=0;entryY=0.5;entryDx=0;entryDy=0;" edge="1" parent="1" source="8054SFOE1MTh788rlJeO-1" target="8054SFOE1MTh788rlJeO-23">
          <mxGeometry width="50" height="50" relative="1" as="geometry">
            <mxPoint x="60" y="270" as="sourcePoint" />
            <mxPoint x="-70" y="265" as="targetPoint" />
          </mxGeometry>
        </mxCell>
        <mxCell id="8054SFOE1MTh788rlJeO-4" value="시스템 시작" style="text;html=1;strokeColor=none;fillColor=none;align=center;verticalAlign=middle;whiteSpace=wrap;rounded=0;" vertex="1" parent="1">
          <mxGeometry x="-150" y="240" width="40" height="20" as="geometry" />
        </mxCell>
        <mxCell id="8054SFOE1MTh788rlJeO-5" value="메뉴 선택(구성) 완료" style="html=1;align=center;verticalAlign=top;rounded=1;absoluteArcSize=1;arcSize=10;dashed=0;" vertex="1" parent="1">
          <mxGeometry x="390" y="245" width="140" height="40" as="geometry" />
        </mxCell>
        <mxCell id="8054SFOE1MTh788rlJeO-6" value="" style="endArrow=classic;html=1;exitX=1;exitY=0.5;exitDx=0;exitDy=0;entryX=0;entryY=0.5;entryDx=0;entryDy=0;" edge="1" parent="1" source="8054SFOE1MTh788rlJeO-2" target="8054SFOE1MTh788rlJeO-5">
          <mxGeometry width="50" height="50" relative="1" as="geometry">
            <mxPoint x="300" y="190" as="sourcePoint" />
            <mxPoint x="350" y="140" as="targetPoint" />
          </mxGeometry>
        </mxCell>
        <mxCell id="8054SFOE1MTh788rlJeO-10" value="구성(선택)" style="text;html=1;strokeColor=none;fillColor=none;align=center;verticalAlign=middle;whiteSpace=wrap;rounded=0;" vertex="1" parent="1">
          <mxGeometry x="319" y="240" width="40" height="20" as="geometry" />
        </mxCell>
        <mxCell id="8054SFOE1MTh788rlJeO-17" style="edgeStyle=orthogonalEdgeStyle;rounded=0;orthogonalLoop=1;jettySize=auto;html=1;exitX=0.25;exitY=1;exitDx=0;exitDy=0;entryX=0.879;entryY=1.05;entryDx=0;entryDy=0;entryPerimeter=0;" edge="1" parent="1" source="8054SFOE1MTh788rlJeO-11" target="8054SFOE1MTh788rlJeO-11">
          <mxGeometry relative="1" as="geometry">
            <mxPoint x="740" y="360" as="targetPoint" />
            <Array as="points">
              <mxPoint x="655" y="360" />
              <mxPoint x="743" y="360" />
            </Array>
          </mxGeometry>
        </mxCell>
        <mxCell id="8054SFOE1MTh788rlJeO-11" value="장바구니 구성 중" style="html=1;align=center;verticalAlign=top;rounded=1;absoluteArcSize=1;arcSize=10;dashed=0;" vertex="1" parent="1">
          <mxGeometry x="620" y="245" width="140" height="40" as="geometry" />
        </mxCell>
        <mxCell id="8054SFOE1MTh788rlJeO-12" value="" style="endArrow=classic;html=1;exitX=1;exitY=0.5;exitDx=0;exitDy=0;entryX=0;entryY=0.5;entryDx=0;entryDy=0;" edge="1" parent="1" source="8054SFOE1MTh788rlJeO-5" target="8054SFOE1MTh788rlJeO-11">
          <mxGeometry width="50" height="50" relative="1" as="geometry">
            <mxPoint x="550" y="220" as="sourcePoint" />
            <mxPoint x="600" y="170" as="targetPoint" />
          </mxGeometry>
        </mxCell>
        <mxCell id="8054SFOE1MTh788rlJeO-13" value="장바구니에 추가" style="text;html=1;strokeColor=none;fillColor=none;align=center;verticalAlign=middle;whiteSpace=wrap;rounded=0;" vertex="1" parent="1">
          <mxGeometry x="540" y="240" width="70" height="20" as="geometry" />
        </mxCell>
        <mxCell id="8054SFOE1MTh788rlJeO-14" value="" style="endArrow=classic;html=1;exitX=0.5;exitY=0;exitDx=0;exitDy=0;entryX=0.5;entryY=0;entryDx=0;entryDy=0;" edge="1" parent="1" source="8054SFOE1MTh788rlJeO-11" target="8054SFOE1MTh788rlJeO-2">
          <mxGeometry width="50" height="50" relative="1" as="geometry">
            <mxPoint x="709" y="125" as="sourcePoint" />
            <mxPoint x="469" y="125" as="targetPoint" />
            <Array as="points">
              <mxPoint x="690" y="190" />
              <mxPoint x="220" y="190" />
            </Array>
          </mxGeometry>
        </mxCell>
        <mxCell id="8054SFOE1MTh788rlJeO-15" value="[ 메뉴를 더 추가 ]" style="text;html=1;strokeColor=none;fillColor=none;align=center;verticalAlign=middle;whiteSpace=wrap;rounded=0;" vertex="1" parent="1">
          <mxGeometry x="570" y="160" width="110" height="20" as="geometry" />
        </mxCell>
        <mxCell id="8054SFOE1MTh788rlJeO-18" value="[ 수량 조절 ]" style="text;html=1;strokeColor=none;fillColor=none;align=center;verticalAlign=middle;whiteSpace=wrap;rounded=0;" vertex="1" parent="1">
          <mxGeometry x="650" y="370" width="90" height="20" as="geometry" />
        </mxCell>
        <mxCell id="8054SFOE1MTh788rlJeO-19" value="장바구니 구성 완료" style="html=1;align=center;verticalAlign=top;rounded=1;absoluteArcSize=1;arcSize=10;dashed=0;" vertex="1" parent="1">
          <mxGeometry x="890" y="245" width="140" height="40" as="geometry" />
        </mxCell>
        <mxCell id="8054SFOE1MTh788rlJeO-21" value="" style="endArrow=classic;html=1;exitX=1;exitY=0.5;exitDx=0;exitDy=0;entryX=0;entryY=0.5;entryDx=0;entryDy=0;" edge="1" parent="1" source="8054SFOE1MTh788rlJeO-11" target="8054SFOE1MTh788rlJeO-19">
          <mxGeometry width="50" height="50" relative="1" as="geometry">
            <mxPoint x="760" y="210" as="sourcePoint" />
            <mxPoint x="810" y="160" as="targetPoint" />
          </mxGeometry>
        </mxCell>
        <mxCell id="8054SFOE1MTh788rlJeO-22" value="[ 구성 완료 ]" style="text;html=1;strokeColor=none;fillColor=none;align=center;verticalAlign=middle;whiteSpace=wrap;rounded=0;" vertex="1" parent="1">
          <mxGeometry x="770" y="240" width="110" height="20" as="geometry" />
        </mxCell>
        <mxCell id="8054SFOE1MTh788rlJeO-23" value="빈 장바구니" style="html=1;align=center;verticalAlign=top;rounded=1;absoluteArcSize=1;arcSize=10;dashed=0;" vertex="1" parent="1">
          <mxGeometry x="-80" y="245" width="140" height="40" as="geometry" />
        </mxCell>
        <mxCell id="8054SFOE1MTh788rlJeO-24" value="" style="endArrow=classic;html=1;exitX=1;exitY=0.5;exitDx=0;exitDy=0;entryX=0;entryY=0.5;entryDx=0;entryDy=0;" edge="1" parent="1" source="8054SFOE1MTh788rlJeO-23" target="8054SFOE1MTh788rlJeO-2">
          <mxGeometry width="50" height="50" relative="1" as="geometry">
            <mxPoint x="70" y="230" as="sourcePoint" />
            <mxPoint x="120" y="180" as="targetPoint" />
          </mxGeometry>
        </mxCell>
        <mxCell id="8054SFOE1MTh788rlJeO-25" value="" style="ellipse;html=1;shape=endState;fillColor=#000000;strokeColor=#ff0000;" vertex="1" parent="1">
          <mxGeometry x="-25" y="390" width="30" height="30" as="geometry" />
        </mxCell>
        <mxCell id="8054SFOE1MTh788rlJeO-26" value="" style="endArrow=classic;html=1;entryX=0.5;entryY=0;entryDx=0;entryDy=0;exitX=0.5;exitY=1;exitDx=0;exitDy=0;" edge="1" parent="1" source="8054SFOE1MTh788rlJeO-23" target="8054SFOE1MTh788rlJeO-25">
          <mxGeometry width="50" height="50" relative="1" as="geometry">
            <mxPoint x="-140" y="380" as="sourcePoint" />
            <mxPoint x="-90" y="330" as="targetPoint" />
          </mxGeometry>
        </mxCell>
        <mxCell id="8054SFOE1MTh788rlJeO-27" value="[ 주문 안함 ]" style="text;html=1;strokeColor=none;fillColor=none;align=center;verticalAlign=middle;whiteSpace=wrap;rounded=0;" vertex="1" parent="1">
          <mxGeometry x="-90" y="330" width="70" height="20" as="geometry" />
        </mxCell>
        <mxCell id="8054SFOE1MTh788rlJeO-28" value="[ 주문 ]" style="text;html=1;strokeColor=none;fillColor=none;align=center;verticalAlign=middle;whiteSpace=wrap;rounded=0;" vertex="1" parent="1">
          <mxGeometry x="80" y="240" width="50" height="20" as="geometry" />
        </mxCell>
        <mxCell id="8054SFOE1MTh788rlJeO-29" value="" style="endArrow=classic;html=1;exitX=0.621;exitY=0.05;exitDx=0;exitDy=0;exitPerimeter=0;entryX=0.5;entryY=0;entryDx=0;entryDy=0;" edge="1" parent="1" source="8054SFOE1MTh788rlJeO-11" target="8054SFOE1MTh788rlJeO-23">
          <mxGeometry width="50" height="50" relative="1" as="geometry">
            <mxPoint x="710" y="220" as="sourcePoint" />
            <mxPoint x="-10" y="220" as="targetPoint" />
            <Array as="points">
              <mxPoint x="707" y="140" />
              <mxPoint x="10" y="140" />
              <mxPoint x="-10" y="140" />
            </Array>
          </mxGeometry>
        </mxCell>
        <mxCell id="8054SFOE1MTh788rlJeO-30" value="[ 주문 취소 ]" style="text;html=1;strokeColor=none;fillColor=none;align=center;verticalAlign=middle;whiteSpace=wrap;rounded=0;" vertex="1" parent="1">
          <mxGeometry x="590" y="110" width="80" height="20" as="geometry" />
        </mxCell>
        <mxCell id="8054SFOE1MTh788rlJeO-31" value="" style="endArrow=classic;html=1;exitX=0.25;exitY=0;exitDx=0;exitDy=0;entryX=0.7;entryY=0.05;entryDx=0;entryDy=0;entryPerimeter=0;" edge="1" parent="1" source="8054SFOE1MTh788rlJeO-2" target="8054SFOE1MTh788rlJeO-23">
          <mxGeometry width="50" height="50" relative="1" as="geometry">
            <mxPoint x="140" y="220" as="sourcePoint" />
            <mxPoint x="10" y="170" as="targetPoint" />
            <Array as="points">
              <mxPoint x="185" y="190" />
              <mxPoint x="18" y="190" />
            </Array>
          </mxGeometry>
        </mxCell>
        <mxCell id="8054SFOE1MTh788rlJeO-32" value="[ 빈장바구니 &amp;amp;&amp;amp; 취소 ]" style="text;html=1;strokeColor=none;fillColor=none;align=center;verticalAlign=middle;whiteSpace=wrap;rounded=0;" vertex="1" parent="1">
          <mxGeometry x="50" y="160" width="130" height="20" as="geometry" />
        </mxCell>
        <mxCell id="8054SFOE1MTh788rlJeO-34" value="" style="endArrow=classic;html=1;exitX=0.25;exitY=1;exitDx=0;exitDy=0;entryX=0.114;entryY=1;entryDx=0;entryDy=0;entryPerimeter=0;" edge="1" parent="1" source="8054SFOE1MTh788rlJeO-2" target="8054SFOE1MTh788rlJeO-11">
          <mxGeometry width="50" height="50" relative="1" as="geometry">
            <mxPoint x="190" y="350" as="sourcePoint" />
            <mxPoint x="610" y="380" as="targetPoint" />
            <Array as="points">
              <mxPoint x="185" y="330" />
              <mxPoint x="636" y="330" />
            </Array>
          </mxGeometry>
        </mxCell>
        <mxCell id="8054SFOE1MTh788rlJeO-37" value="[ !빈장바구니 &amp;amp;&amp;amp; 취소 ]" style="text;html=1;strokeColor=none;fillColor=none;align=center;verticalAlign=middle;whiteSpace=wrap;rounded=0;" vertex="1" parent="1">
          <mxGeometry x="200" y="340" width="130" height="20" as="geometry" />
        </mxCell>
        <mxCell id="8054SFOE1MTh788rlJeO-38" value="" style="endArrow=classic;html=1;entryX=0.5;entryY=0;entryDx=0;entryDy=0;exitX=0.5;exitY=1;exitDx=0;exitDy=0;" edge="1" parent="1" source="8054SFOE1MTh788rlJeO-19" target="8054SFOE1MTh788rlJeO-39">
          <mxGeometry width="50" height="50" relative="1" as="geometry">
            <mxPoint x="960" y="320" as="sourcePoint" />
            <mxPoint x="950" y="350" as="targetPoint" />
            <Array as="points" />
          </mxGeometry>
        </mxCell>
        <mxCell id="8054SFOE1MTh788rlJeO-39" value="결제 수단 선택 완료" style="html=1;align=center;verticalAlign=top;rounded=1;absoluteArcSize=1;arcSize=10;dashed=0;" vertex="1" parent="1">
          <mxGeometry x="890" y="360" width="140" height="40" as="geometry" />
        </mxCell>
        <mxCell id="8054SFOE1MTh788rlJeO-40" value="결제 수단 선택" style="text;html=1;strokeColor=none;fillColor=none;align=center;verticalAlign=middle;whiteSpace=wrap;rounded=0;" vertex="1" parent="1">
          <mxGeometry x="970" y="310" width="90" height="20" as="geometry" />
        </mxCell>
        <mxCell id="8054SFOE1MTh788rlJeO-41" value="거부" style="html=1;align=center;verticalAlign=top;rounded=1;absoluteArcSize=1;arcSize=10;dashed=0;" vertex="1" parent="1">
          <mxGeometry x="1140" y="360" width="140" height="40" as="geometry" />
        </mxCell>
        <mxCell id="8054SFOE1MTh788rlJeO-42" value="" style="endArrow=classic;html=1;exitX=1;exitY=0.5;exitDx=0;exitDy=0;entryX=0;entryY=0.5;entryDx=0;entryDy=0;" edge="1" parent="1" source="8054SFOE1MTh788rlJeO-39" target="8054SFOE1MTh788rlJeO-41">
          <mxGeometry width="50" height="50" relative="1" as="geometry">
            <mxPoint x="1050" y="379.5" as="sourcePoint" />
            <mxPoint x="1100" y="379.5" as="targetPoint" />
            <Array as="points">
              <mxPoint x="1080" y="379.5" />
            </Array>
          </mxGeometry>
        </mxCell>
        <mxCell id="8054SFOE1MTh788rlJeO-43" value="[ 결제 거부 ]" style="text;html=1;strokeColor=none;fillColor=none;align=center;verticalAlign=middle;whiteSpace=wrap;rounded=0;" vertex="1" parent="1">
          <mxGeometry x="1050" y="350" width="70" height="20" as="geometry" />
        </mxCell>
        <mxCell id="8054SFOE1MTh788rlJeO-44" value="" style="endArrow=classic;html=1;exitX=0.5;exitY=0;exitDx=0;exitDy=0;entryX=1;entryY=0.5;entryDx=0;entryDy=0;" edge="1" parent="1" source="8054SFOE1MTh788rlJeO-41" target="8054SFOE1MTh788rlJeO-19">
          <mxGeometry width="50" height="50" relative="1" as="geometry">
            <mxPoint x="1190" y="340" as="sourcePoint" />
            <mxPoint x="1210" y="230" as="targetPoint" />
            <Array as="points">
              <mxPoint x="1210" y="265" />
            </Array>
          </mxGeometry>
        </mxCell>
        <mxCell id="8054SFOE1MTh788rlJeO-45" value="[ 다시 결제 ]" style="text;html=1;strokeColor=none;fillColor=none;align=center;verticalAlign=middle;whiteSpace=wrap;rounded=0;" vertex="1" parent="1">
          <mxGeometry x="1140" y="240" width="80" height="20" as="geometry" />
        </mxCell>
        <mxCell id="8054SFOE1MTh788rlJeO-46" value="" style="ellipse;html=1;shape=endState;fillColor=#000000;strokeColor=#ff0000;" vertex="1" parent="1">
          <mxGeometry x="1195" y="490" width="30" height="30" as="geometry" />
        </mxCell>
        <mxCell id="8054SFOE1MTh788rlJeO-47" value="" style="endArrow=classic;html=1;entryX=0.5;entryY=0;entryDx=0;entryDy=0;exitX=0.5;exitY=1;exitDx=0;exitDy=0;" edge="1" parent="1" source="8054SFOE1MTh788rlJeO-41" target="8054SFOE1MTh788rlJeO-46">
          <mxGeometry width="50" height="50" relative="1" as="geometry">
            <mxPoint x="1210" y="420" as="sourcePoint" />
            <mxPoint x="1230" y="460" as="targetPoint" />
          </mxGeometry>
        </mxCell>
        <mxCell id="8054SFOE1MTh788rlJeO-48" value="[ 손님이 주문을 취소 ]" style="text;html=1;strokeColor=none;fillColor=none;align=center;verticalAlign=middle;whiteSpace=wrap;rounded=0;" vertex="1" parent="1">
          <mxGeometry x="1220" y="440" width="90" height="20" as="geometry" />
        </mxCell>
        <mxCell id="8054SFOE1MTh788rlJeO-49" value="주문 완료" style="html=1;align=center;verticalAlign=top;rounded=1;absoluteArcSize=1;arcSize=10;dashed=0;" vertex="1" parent="1">
          <mxGeometry x="890" y="480" width="140" height="40" as="geometry" />
        </mxCell>
        <mxCell id="8054SFOE1MTh788rlJeO-50" value="" style="endArrow=classic;html=1;exitX=0.5;exitY=1;exitDx=0;exitDy=0;" edge="1" parent="1" source="8054SFOE1MTh788rlJeO-39" target="8054SFOE1MTh788rlJeO-49">
          <mxGeometry width="50" height="50" relative="1" as="geometry">
            <mxPoint x="959.5" y="410" as="sourcePoint" />
            <mxPoint x="959.5" y="480" as="targetPoint" />
          </mxGeometry>
        </mxCell>
        <mxCell id="8054SFOE1MTh788rlJeO-51" value="[ 결제 승인 ]" style="text;html=1;strokeColor=none;fillColor=none;align=center;verticalAlign=middle;whiteSpace=wrap;rounded=0;" vertex="1" parent="1">
          <mxGeometry x="970" y="430" width="80" height="20" as="geometry" />
        </mxCell>
        <mxCell id="8054SFOE1MTh788rlJeO-52" value="" style="ellipse;html=1;shape=endState;fillColor=#000000;strokeColor=#ff0000;" vertex="1" parent="1">
          <mxGeometry x="945" y="600" width="30" height="30" as="geometry" />
        </mxCell>
        <mxCell id="8054SFOE1MTh788rlJeO-53" value="" style="endArrow=classic;html=1;exitX=0.5;exitY=1;exitDx=0;exitDy=0;entryX=0.5;entryY=0;entryDx=0;entryDy=0;" edge="1" parent="1" source="8054SFOE1MTh788rlJeO-49" target="8054SFOE1MTh788rlJeO-52">
          <mxGeometry width="50" height="50" relative="1" as="geometry">
            <mxPoint x="959.5" y="544.5" as="sourcePoint" />
            <mxPoint x="959.5" y="584.5" as="targetPoint" />
          </mxGeometry>
        </mxCell>
        <mxCell id="8054SFOE1MTh788rlJeO-54" value="주문 내역 주문 번호 출력" style="text;html=1;strokeColor=none;fillColor=none;align=center;verticalAlign=middle;whiteSpace=wrap;rounded=0;" vertex="1" parent="1">
          <mxGeometry x="975" y="550" width="145" height="20" as="geometry" />
        </mxCell>
        <mxCell id="8054SFOE1MTh788rlJeO-55" value="KIOSK" style="shape=umlFrame;whiteSpace=wrap;html=1;" vertex="1" parent="1">
          <mxGeometry x="-260" y="85" width="1600" height="575" as="geometry" />
        </mxCell>
      </root>
    </mxGraphModel>
  </diagram>
</mxfile>
